<svg width="36" height="25" viewBox="0 0 36 25" fill="none" xmlns="http://www.w3.org/2000/svg">
<g clip-path="url(#clip0_1_144)">
<path d="M22.038 12.3258C22.038 13.4919 21.0568 14.4373 19.8461 14.4373C18.6355 14.4373 17.6559 13.4919 17.6559 12.3258C17.6559 11.1598 18.6372 10.2161 19.8461 10.2161C21.055 10.2161 22.038 11.1615 22.038 12.3258Z" fill="#333333"/>
<path d="M13.8947 12.3258C13.8947 13.4919 12.9134 14.4373 11.7028 14.4373C10.4922 14.4373 9.51263 13.4919 9.51263 12.3258C9.51263 11.1598 10.4922 10.2161 11.7028 10.2161C12.9134 10.2161 13.8947 11.1615 13.8947 12.3258Z" fill="#333333"/>
<path d="M29.4243 12.3258C29.4243 13.4919 28.443 14.4373 27.2324 14.4373C26.0217 14.4373 25.0422 13.4919 25.0422 12.3258C25.0422 11.1598 26.0234 10.2161 27.2324 10.2161C28.4413 10.2161 29.4243 11.1615 29.4243 12.3258Z" fill="#333333"/>
<path d="M30.1141 0H6.92407V5.25247H36C36 2.3496 33.3649 0 30.1141 0Z" fill="#FF0000"/>
<path d="M0 18.571H5.88762V0C2.63684 0 0 2.35311 0 5.25597V18.571Z" fill="#FF0000"/>
<path d="M5.88762 19.7422H0C0 22.6468 2.63684 24.9947 5.88762 24.9947H29.4243L23.7333 19.7422H5.88762Z" fill="#FF0000"/>
</g>
<defs>
<clipPath id="clip0_1_144">
<rect width="36" height="25" fill="white"/>
</clipPath>
</defs>
</svg>
