<svg id="Capa_1" data-name="Capa 1" xmlns="http://www.w3.org/2000/svg" viewBox="0 0 600 200"><defs><style>.cls-1{fill:#333;}.cls-2{fill:red;}</style></defs><path class="cls-1" d="M142.79,92.15c0,6.66-5.69,12.06-12.71,12.06s-12.7-5.4-12.7-12.06,5.69-12.05,12.7-12.05,12.71,5.4,12.71,12.05"/><path class="cls-1" d="M95.57,92.15c0,6.66-5.69,12.06-12.71,12.06s-12.7-5.4-12.7-12.06S75.84,80.1,82.86,80.1s12.71,5.4,12.71,12.05"/><path class="cls-1" d="M185.62,92.15c0,6.66-5.69,12.06-12.71,12.06s-12.7-5.4-12.7-12.06,5.69-12.05,12.7-12.05,12.71,5.4,12.71,12.05"/><path class="cls-1" d="M248.83,80.18a42.63,42.63,0,0,1,42.6,42.61,42.59,42.59,0,0,1-72.72,30.11,41,41,0,0,1-12.49-30.11,42.63,42.63,0,0,1,42.61-42.61m0,79.2a36.52,36.52,0,0,0,36.59-36.59,36.6,36.6,0,1,0-62.5,25.89,35.43,35.43,0,0,0,25.91,10.7m-25,6.24-3.24,1.91,1.16,2a21.07,21.07,0,0,0,4.85,5.15,22.37,22.37,0,0,0,14.17,4.85h16.59a16.63,16.63,0,0,1,10.35,3.41,14.09,14.09,0,0,1,3.53,3.64l1.21,1.9,1.91-1.15,3.18-2-1.16-1.92a19.68,19.68,0,0,0-4.8-5.15,22.51,22.51,0,0,0-14.22-4.85H240.79A17,17,0,0,1,230.44,170a15.39,15.39,0,0,1-3.46-3.7l-1.28-1.92Z"/><path class="cls-1" d="M374.8,122.14q-.24,17.58-11.27,30T337,164.58q-15.56,0-26.6-12.49T299.18,122V81.44H305V122q.17,14.91,9.48,25.43T337,158q13.13,0,22.43-10.48T369,122.14V81.44h5.84Z"/><rect class="cls-1" x="383.52" y="81.5" width="6.07" height="82.9"/><path class="cls-1" d="M424.51,81.57a35.57,35.57,0,0,1,15.72,3.87q15.56,7.56,15.55,26.08t-15.55,26.13a36.15,36.15,0,0,1-15.72,3.8H404.39v23h-6.07V81.57Zm-20.12,6v47.93h20.12a29.14,29.14,0,0,0,12.83-3.19q12.14-6,12.14-20.8T437.4,90.7a28.75,28.75,0,0,0-12.89-3.12Z"/><polygon class="cls-1" points="532.87 164.53 525.52 164.53 489.27 95.85 453.26 164.53 445.57 164.53 485.12 89.25 485.12 89.19 489.27 81.44 493.27 88.96 532.87 164.53"/><path class="cls-1" d="M585,111.57q0,15.66-11.22,23.58a36.61,36.61,0,0,1-17.11,6.14l23.82,23.11h-9l-23.59-22.88H533.49V164.4h-6.07V81.62h26.36a35.53,35.53,0,0,1,15.73,3.88Q585,93.06,585,111.57m-31.22,23.94a28.59,28.59,0,0,0,12.9-3.14q12.08-6,12.07-20.8T566.68,90.75a28.58,28.58,0,0,0-12.9-3.12H533.49v47.88Z"/><path class="cls-2" d="M189.62,21.75H55.15v30h168.6c0-16.58-15.28-30-34.13-30"/><path class="cls-2" d="M15,127.82H49.14V21.75C30.29,21.75,15,35.19,15,51.77Z"/><path class="cls-2" d="M49.14,134.51H15c0,16.59,15.29,30,34.14,30H185.62l-33-30Z"/></svg>