<?xml version="1.0" encoding="utf-8"?>
<!-- Generator: Adobe Illustrator 19.0.0, SVG Export Plug-In . SVG Version: 6.00 Build 0)  -->
<svg version="1.1" id="layer" xmlns="http://www.w3.org/2000/svg" xmlns:xlink="http://www.w3.org/1999/xlink" x="0px" y="0px"
	 viewBox="-153 -46 652 652" style="enable-background:new -153 -46 652 652;" xml:space="preserve">
<path id="Path_4656" d="M168,145.7c-165.2,0-300,58.1-300,129.3S2.8,404.3,168,404.3S468,346.4,468,275S333.2,145.7,168,145.7z
	 M168,399.3c-161.9,0-293.9-55.9-293.9-124.3S6.1,150.7,168,150.7S461.9,206.6,461.9,275S329.9,399.3,168,399.3z"/>
<path id="Path_4661" d="M315.6,275l27-26.6c2.2-2.6,1.9-6.5-0.7-8.8c-2.6-2.2-6.5-2.2-9.1,0l-26.7,26.2l-26.5-26.3
	c-2.9-2.1-6.9-1.9-9.5,0.6c-2.3,2.2-2.5,5.8-0.5,8.2L297,275l-27.2,26.9c-2,2.5-1.7,6.2,0.8,8.3c2.6,2.3,6.6,2.3,9.2,0l26.3-25.7
	l26.7,26.3c2.7,2,6.5,1.9,9-0.4c2.4-2.3,2.7-5.9,0.7-8.5L315.6,275z"/>
<path id="Path_4662" d="M168,170.2c-136.3,0-247.6,47-247.6,104.8S31.7,379.8,168,379.8s247.6-47,247.6-104.8S304.3,170.2,168,170.2
	z M42.2,280.3c0.7,11.3-3.9,22.2-12.3,29.7c-9.8,7.5-21.9,11.3-34.2,10.6c-12.3,0.7-24.5-3-34.3-10.6c-8.4-7.5-13-18.4-12.4-29.7
	v-37c-0.3-3.8,0.8-7.6,3-10.7c5.4-4.7,13.3-4.7,18.7,0c2.3,3.1,3.3,6.9,3,10.7v34.8c-0.5,6.3,1.5,12.6,5.5,17.5
	c9.5,7.8,23.2,7.8,32.7,0c4-4.9,6-11.2,5.5-17.5v-34.8c-0.4-3.8,0.7-7.6,2.9-10.7c5.3-4.6,13.2-4.6,18.6,0c2.3,3.1,3.4,6.9,3,10.7
	L42.2,280.3z M145.6,308.3c0.3,3.4-0.7,6.8-2.7,9.5c-2.3,2.1-5.4,3.1-8.5,2.7c-2.4,0.2-4.8-0.3-7-1.4c-2.6-1.4-5-3.2-7-5.4l-43.3-49
	v41c0.3,4-0.8,8-3.1,11.2c-2.3,2.5-5.7,3.8-9.1,3.5c-3.5,0.4-7-0.7-9.5-3.2c-2.2-3.3-3.2-7.2-2.9-11.2v-63.3
	c-0.3-3.6,0.7-7.2,2.8-10.2c2.2-2.3,5.3-3.6,8.5-3.3c2.3,0,4.6,0.5,6.7,1.5c2.4,1.3,4.5,3,6.2,5l44.2,49.6v-41.8
	c-0.3-3.9,0.8-7.7,3-10.9c2.3-2.5,5.7-3.8,9.1-3.6c3.5-0.2,7,1.1,9.5,3.6c2.2,3.2,3.3,7,3,10.9L145.6,308.3z M242.4,308.3
	c-8.4,8.4-23.5,12.6-37.1,12.6c-13.6,0-28.6-4.2-37-12.6c-16.7-18.9-16.7-47.3,0-66.2c8.3-8.4,23.4-12.6,37-12.6s28.6,4.2,37,12.7
	C259.1,261,259.1,289.5,242.4,308.3L242.4,308.3z M347.8,316.8c-6.3,5.7-16,5.4-21.9-0.7c-3.7-3.8-19.7-19.6-19.7-19.6L285.7,317
	c-6.1,5.4-15.3,5.2-21.2-0.4c-5.9-5.2-6.5-14.2-1.3-20.2c0.1-0.1,0.2-0.2,0.3-0.3c4.8-4.8,21-20.9,21-20.9L264,255
	c-5.7-5.5-5.8-14.5-0.3-20.2c0.1-0.1,0.2-0.2,0.3-0.3l0,0c5.8-5.8,15-6.2,21.3-1.1c4,3.6,20.8,20.2,20.8,20.2s16.8-16.4,20.1-19.8
	c5.9-5.5,15-5.8,21.2-0.7c6.2,5.3,7.1,14.6,1.9,20.9c-5.5,5.6-21.4,21.1-21.4,21.1s16.9,16.5,20.9,20.5c5.6,5.9,5.3,15.2-0.6,20.8
	c0,0,0,0,0,0L347.8,316.8L347.8,316.8z M375,258.9c-8.1,0-14.7-6.6-14.7-14.7c0-8.1,6.6-14.7,14.7-14.7c8.1,0,14.7,6.6,14.7,14.7
	l0,0l0,0C389.7,252.3,383.2,258.9,375,258.9C375.1,258.9,375.1,258.9,375,258.9L375,258.9z"/>
<path id="Path_4663" d="M377.9,242.6l0.3-1c0-0.5-0.2-0.9-0.5-1.2c-0.5-0.4-1.2-0.6-1.8-0.5h-3.4v3.6h3.1c0.5,0,1.1,0,1.6-0.2
	L377.9,242.6z"/>
<path id="Path_4664" d="M375,232.1c-6.5,0.1-11.8,5.5-11.7,12s5.5,11.8,12,11.7c6.4-0.1,11.6-5.3,11.7-11.7
	c0.1-6.5-5.2-11.9-11.7-12C375.2,232.1,375.1,232.1,375,232.1z M378.7,249.4l-1.4-2.3l-0.4-0.6l-0.4-0.6c0-0.1,0-0.2,0-0.3l-0.7-0.8
	l-0.7-0.3h-2.5v4.8h-1.5v-11h4.8c0.8,0,1.5,0.1,2.2,0.3c0.5,0.2,0.9,0.6,1.2,1c0.3,0.5,0.5,1.1,0.5,1.7c0,0.7-0.2,1.4-0.8,2
	c-0.6,0.6-1.4,1-2.3,1l0.9,0.5c0.5,0.4,0.9,0.9,1.2,1.4l1.9,3L378.7,249.4z"/>
<path id="Path_4666" d="M205.3,248c-6.9-0.2-13.5,2.4-18.3,7.4c-4.4,5.7-6.7,12.7-6.5,19.9c-0.2,7,2.1,13.9,6.5,19.4
	c4.8,4.8,11.3,7.5,18.1,7.3c6.8,0.2,13.4-2.4,18.2-7.3c4.4-5.3,6.8-12.1,6.6-19c0.2-7.2-2.1-14.3-6.5-20
	C218.8,250.7,212.2,247.9,205.3,248z"/>
</svg>
