<?xml version="1.0" encoding="UTF-8" standalone="no"?><!DOCTYPE svg PUBLIC "-//W3C//DTD SVG 1.1//EN" "http://www.w3.org/Graphics/SVG/1.1/DTD/svg11.dtd"><svg width="100%" height="100%" viewBox="0 0 96 21" version="1.1" xmlns="http://www.w3.org/2000/svg" xmlns:xlink="http://www.w3.org/1999/xlink" xml:space="preserve" xmlns:serif="http://www.serif.com/" style="fill-rule:evenodd;clip-rule:evenodd;stroke-linejoin:round;stroke-miterlimit:1.41421;"><g><path d="M60.366,10.286c0,5.523 -4.721,10 -10.543,10c-5.819,0 -10.538,-4.477 -10.538,-10c0,-5.522 4.719,-10 10.538,-10c5.822,0 10.543,4.478 10.543,10" style="fill:#25292c;fill-rule:nonzero;"/><path d="M49.824,20.286c-5.522,0 -10,-4.446 -10,-9.93c0,-5.486 4.478,-9.931 10,-9.931" style="fill:#444b4d;fill-rule:nonzero;"/><path d="M21.184,10.286c0,5.523 -4.719,10 -10.542,10c-5.819,0 -10.538,-4.477 -10.538,-10c0,-5.522 4.719,-10 10.538,-10c5.823,0 10.542,4.478 10.542,10" style="fill:#25292c;fill-rule:nonzero;"/><path d="M10.643,20.286c-5.523,0 -10,-4.446 -10,-9.93c0,-5.486 4.477,-9.931 10,-9.931" style="fill:#444b4d;fill-rule:nonzero;"/><path d="M95.896,10.286c0,5.523 -4.719,10 -10.54,10c-5.819,0 -10.538,-4.477 -10.538,-10c0,-5.522 4.719,-10 10.538,-10c5.821,0 10.54,4.478 10.54,10" style="fill:#25292c;fill-rule:nonzero;"/><path d="M85.357,20.286c-5.522,0 -10,-4.446 -10,-9.93c0,-5.486 4.478,-9.931 10,-9.931" style="fill:#444b4d;fill-rule:nonzero;"/></g></svg>