<?xml version="1.0" encoding="UTF-8" standalone="no"?><!DOCTYPE svg PUBLIC "-//W3C//DTD SVG 1.1//EN" "http://www.w3.org/Graphics/SVG/1.1/DTD/svg11.dtd"><svg width="100%" height="100%" viewBox="0 0 188 56" version="1.1" xmlns="http://www.w3.org/2000/svg" xmlns:xlink="http://www.w3.org/1999/xlink" xml:space="preserve" xmlns:serif="http://www.serif.com/" style="fill-rule:evenodd;clip-rule:evenodd;stroke-linejoin:round;stroke-miterlimit:1.41421;"><g id="Equipar-ID" serif:id="Equipar ID"><path d="M40.219,21.845c0,2.095 -1.791,3.793 -3.999,3.793c-2.208,0 -3.998,-1.698 -3.998,-3.793c0,-2.096 1.79,-3.794 3.998,-3.794c2.208,0 3.999,1.698 3.999,3.794" style="fill:#020202;fill-rule:nonzero;"/><path d="M26.356,21.845c0,2.095 -1.79,3.793 -3.999,3.793c-2.208,0 -3.998,-1.698 -3.998,-3.793c0,-2.096 1.79,-3.794 3.998,-3.794c2.209,0 3.999,1.698 3.999,3.794" style="fill:#020202;fill-rule:nonzero;"/><path d="M66.302,41.768l-1.015,0.477l0.363,0.494c0.338,0.434 0.846,0.865 1.524,1.291c1.294,0.812 2.778,1.218 4.447,1.218l5.208,0c1.223,0 2.306,0.284 3.248,0.855c0.495,0.299 0.867,0.604 1.108,0.914l0.379,0.478l0.601,-0.289l0.999,-0.493l-0.365,-0.479c-0.338,-0.446 -0.84,-0.875 -1.507,-1.291c-1.304,-0.812 -2.793,-1.218 -4.463,-1.218l-5.208,0c-1.211,0 -2.293,-0.285 -3.248,-0.855c-0.484,-0.311 -0.848,-0.619 -1.089,-0.928l-0.399,-0.479l-0.583,0.305Zm7.842,-1.567c3.169,0 5.879,-0.894 8.13,-2.683c2.237,-1.797 3.358,-3.963 3.358,-6.495c0,-2.532 -1.121,-4.698 -3.358,-6.496c-2.251,-1.788 -4.961,-2.683 -8.13,-2.683c-3.171,0 -5.881,0.895 -8.132,2.683c-2.238,1.798 -3.357,3.964 -3.357,6.496c0,2.532 1.119,4.698 3.357,6.495c2.251,1.789 4.961,2.683 8.132,2.683m0,-19.865c3.688,0 6.841,1.045 9.454,3.132c2.614,2.088 3.92,4.607 3.92,7.555c0,2.948 -1.306,5.467 -3.92,7.554c-2.613,2.088 -5.766,3.133 -9.454,3.133c-3.691,0 -6.843,-1.045 -9.456,-3.133c-2.613,-2.087 -3.92,-4.606 -3.92,-7.554c0,-2.948 1.307,-5.467 3.92,-7.555c2.613,-2.087 5.765,-3.132 9.456,-3.132" style="fill:#645f64;fill-rule:nonzero;"/><path d="M113.689,30.863c-0.049,2.939 -1.229,5.448 -3.539,7.526c-2.312,2.079 -5.087,3.118 -8.331,3.118c-3.254,0 -6.038,-1.044 -8.348,-3.133c-2.31,-2.078 -3.484,-4.591 -3.52,-7.539l0,-10.18l1.832,0l0,10.18c0.036,2.493 1.029,4.62 2.977,6.379c1.96,1.76 4.314,2.639 7.059,2.639c2.747,0 5.094,-0.874 7.042,-2.624c1.947,-1.749 2.947,-3.871 2.995,-6.366l0,-10.208l1.833,0l0,10.208Z" style="fill:#645f64;fill-rule:nonzero;"/><rect x="116.428" y="20.669" width="1.907" height="20.793" style="fill:#645f64;"/><path d="M122.979,22.192l0,12.021l6.315,0c1.38,-0.01 2.723,-0.276 4.029,-0.798c2.541,-0.995 3.812,-2.735 3.812,-5.219c0,-2.476 -1.265,-4.216 -3.794,-5.221c-1.318,-0.521 -2.667,-0.783 -4.047,-0.783l-6.315,0Zm6.315,-1.507c1.635,0 3.279,0.323 4.937,0.972c3.254,1.265 4.882,3.445 4.882,6.539c0,3.102 -1.628,5.287 -4.882,6.553c-1.658,0.638 -3.302,0.957 -4.937,0.957l-6.315,0l0,5.757l-1.906,0l0,-20.778l8.221,0Z" style="fill:#645f64;fill-rule:nonzero;"/><path d="M163.311,41.492l-2.306,0l-11.379,-17.225l-11.307,17.225l-2.412,0l12.414,-18.88l0,-0.013l1.305,-1.944l1.253,1.885l12.432,18.952Z" style="fill:#645f64;fill-rule:nonzero;"/><path d="M169.876,34.213c1.379,0 2.728,-0.261 4.048,-0.784c2.527,-1.004 3.792,-2.744 3.792,-5.22c0,-2.474 -1.265,-4.214 -3.792,-5.22c-1.308,-0.521 -2.657,-0.783 -4.048,-0.783l-6.37,0l0,12.007l6.37,0Zm9.801,-6.004c0,2.62 -1.174,4.593 -3.521,5.917c-1.489,0.832 -3.28,1.344 -5.373,1.537l7.478,5.8l-2.813,0l-7.405,-5.742l-4.537,0l0,5.742l-1.906,0l0,-20.763l8.276,0c1.633,0 3.279,0.322 4.937,0.971c3.242,1.266 4.864,3.445 4.864,6.538" style="fill:#645f64;fill-rule:nonzero;"/><ellipse cx="27.185" cy="52.211" rx="2.071" ry="2.301" style="fill:#d28f00;"/><ellipse cx="61.847" cy="52.211" rx="2.071" ry="2.301" style="fill:#d28f00;"/><text x="2.036px" y="54.265px" style="font-family:'Futura-Medium', 'Futura', sans-serif;font-weight:500;font-size:5.374px;fill:#645f64;">D<tspan x="6.19px 7.91px 11.256px 14.504px 19.361px " y="54.265px 54.265px 54.265px 54.265px 54.265px ">ISEÑO</tspan></text><text x="29.662px" y="54.265px" style="font-family:'Futura-Medium', 'Futura', sans-serif;font-weight:500;font-size:5.374px;fill:#645f64;">A<tspan x="34.011px 37.47px 40.83px 44.289px 49.501px 53.067px 54.901px " y="54.265px 54.265px 54.265px 54.265px 54.265px 54.265px 54.265px ">SESORÍA</tspan></text><text x="64.739px" y="54.265px" style="font-family:'Futura-Medium', 'Futura', sans-serif;font-weight:500;font-size:5.374px;fill:#645f64;">E<tspan x="68.07px 73.254px 77.563px 79.369px 82.261px 86.581px 92.148px 93.953px 97.285px 102.19px 104.924px 110.108px 111.99px 116.228px 119.56px 121.442px 125.511px 130.694px 134.789px 136.594px 141.531px 145.852px 147.734px 149.539px 154.444px 158.682px 162.992px 166.499px 169.362px 172.901px 174.706px 179.027px " y="54.265px 54.265px 54.265px 54.265px 54.265px 54.265px 54.265px 54.265px 54.265px 54.265px 54.265px 54.265px 54.265px 54.265px 54.265px 54.265px 54.265px 54.265px 54.265px 54.265px 54.265px 54.265px 54.265px 54.265px 54.265px 54.265px 54.265px 54.265px 54.265px 54.265px 54.265px 54.265px ">QUIPAMIENTO DE COCINA INDUSTRIAL</tspan></text><path d="M11.744,34.644l-10.744,0c0,5.221 4.812,9.452 10.744,9.452l42.953,0l-10.385,-9.452l-32.568,0Z" style="fill:#0d85b9;fill-rule:nonzero;"/><path d="M1,34.644l10.744,0l0,-34.644c-5.932,0 -10.744,4.232 -10.744,9.452l0,25.192Z" style="fill:#92a903;fill-rule:nonzero;"/><path d="M54.697,0l-42.953,0l0,9.452l53.697,0c0,-5.22 -4.811,-9.452 -10.744,-9.452" style="fill:#d28f00;fill-rule:nonzero;"/><path d="M36.22,25.637c-2.094,0 -3.793,-1.686 -3.793,-3.766c0,-2.081 1.699,-3.767 3.793,-3.767" style="fill:#685c68;fill-rule:nonzero;"/><path d="M22.357,25.637c-2.094,0 -3.793,-1.686 -3.793,-3.766c0,-2.081 1.699,-3.767 3.793,-3.767" style="fill:#685c68;fill-rule:nonzero;"/><path d="M53.697,21.845c0,2.095 -1.79,3.793 -3.998,3.793c-2.207,0 -3.998,-1.698 -3.998,-3.793c0,-2.096 1.791,-3.794 3.998,-3.794c2.208,0 3.998,1.698 3.998,3.794" style="fill-rule:nonzero;"/><path d="M49.699,25.637c-2.095,0 -3.794,-1.686 -3.794,-3.766c0,-2.081 1.699,-3.767 3.794,-3.767" style="fill:#685c68;fill-rule:nonzero;"/></g></svg>