<?xml version="1.0" encoding="UTF-8" standalone="no"?><!DOCTYPE svg PUBLIC "-//W3C//DTD SVG 1.1//EN" "http://www.w3.org/Graphics/SVG/1.1/DTD/svg11.dtd"><svg width="100%" height="100%" viewBox="0 0 23 23" version="1.1" xmlns="http://www.w3.org/2000/svg" xmlns:xlink="http://www.w3.org/1999/xlink" xml:space="preserve" xmlns:serif="http://www.serif.com/" style="fill-rule:evenodd;clip-rule:evenodd;stroke-linejoin:round;stroke-miterlimit:1.41421;"><g><ellipse cx="11.671" cy="11.037" rx="2.884" ry="2.884" style="fill:#ffffff;"/><path d="M16.167,7.603c-0.575,0 -1.042,-0.467 -1.042,-1.043c0,-0.575 0.467,-1.042 1.042,-1.042c0.577,0 1.043,0.467 1.043,1.042c0,0.576 -0.466,1.043 -1.043,1.043m-4.474,7.835c-2.432,0 -4.405,-1.972 -4.405,-4.404c0,-2.433 1.973,-4.405 4.405,-4.405c2.432,0 4.404,1.972 4.404,4.405c0,2.432 -1.972,4.404 -4.404,4.404m3.319,-11.328l-6.688,0c-0.91,0 -1.768,0.357 -2.417,1.006c-0.649,0.65 -1.007,1.508 -1.007,2.418l0,7.126c0,0.909 0.358,1.768 1.007,2.416c0.649,0.649 1.507,1.007 2.417,1.007l6.688,0c0.909,0 1.768,-0.358 2.416,-1.007c0.65,-0.648 1.008,-1.507 1.008,-2.416l0,-7.126c0,-0.91 -0.358,-1.768 -1.008,-2.418c-0.648,-0.649 -1.506,-1.006 -2.416,-1.006" style="fill:#ffffff;fill-rule:nonzero;"/><path d="M19.665,14.66c0,2.559 -2.094,4.653 -4.653,4.653l-6.688,0c-2.559,0 -4.653,-2.094 -4.653,-4.653l0,-7.126c0,-2.56 2.094,-4.653 4.653,-4.653l6.688,0c2.559,0 4.653,2.093 4.653,4.653l0,7.126Zm-1.751,-14.592l-12.426,0c-2.645,0 -4.787,2.153 -4.787,4.809l0,12.336c0,2.657 2.142,4.81 4.787,4.81l12.426,0c2.643,0 4.787,-2.153 4.787,-4.81l0,-12.336c0,-2.656 -2.143,-4.809 -4.787,-4.809" style="fill:#ffffff;fill-rule:nonzero;"/></g></svg>