<?xml version="1.0" encoding="UTF-8" standalone="no"?><!DOCTYPE svg PUBLIC "-//W3C//DTD SVG 1.1//EN" "http://www.w3.org/Graphics/SVG/1.1/DTD/svg11.dtd"><svg width="100%" height="100%" viewBox="0 0 23 23" version="1.1" xmlns="http://www.w3.org/2000/svg" xmlns:xlink="http://www.w3.org/1999/xlink" xml:space="preserve" xmlns:serif="http://www.serif.com/" style="fill-rule:evenodd;clip-rule:evenodd;stroke-linejoin:round;stroke-miterlimit:1.41421;"><path d="M18.799,12.385l-3.023,0l0,8.088l-3.079,0l0,-8.088l-2.139,0l0,-2.911l2.139,0l0,-2.488c0,-1.954 1.264,-3.749 4.175,-3.749c1.178,0 2.05,0.113 2.05,0.113l-0.07,2.719c0,0 -0.888,-0.008 -1.858,-0.008c-1.05,0 -1.218,0.484 -1.218,1.287l0,2.126l3.16,0l-0.137,2.911Zm2.07,-12.339l-19.486,0c-0.691,0 -1.257,0.565 -1.257,1.257l0,19.485c0,0.691 0.566,1.257 1.257,1.257l19.486,0c0.69,0 1.257,-0.566 1.257,-1.257l0,-19.485c0,-0.692 -0.567,-1.257 -1.257,-1.257" style="fill:#ffffff;fill-rule:nonzero;"/></svg>