<?xml version="1.0" encoding="UTF-8" standalone="no"?><!DOCTYPE svg PUBLIC "-//W3C//DTD SVG 1.1//EN" "http://www.w3.org/Graphics/SVG/1.1/DTD/svg11.dtd"><svg width="100%" height="100%" viewBox="0 0 28 23" version="1.1" xmlns="http://www.w3.org/2000/svg" xmlns:xlink="http://www.w3.org/1999/xlink" xml:space="preserve" xmlns:serif="http://www.serif.com/" style="fill-rule:evenodd;clip-rule:evenodd;stroke-linejoin:round;stroke-miterlimit:1.41421;"><path d="M27.181,2.649c-0.996,0.442 -2.066,0.74 -3.189,0.875c1.146,-0.688 2.026,-1.776 2.441,-3.073c-1.073,0.637 -2.261,1.098 -3.526,1.347c-1.014,-1.078 -2.457,-1.753 -4.055,-1.753c-3.067,0 -5.554,2.487 -5.554,5.554c0,0.435 0.049,0.859 0.144,1.266c-4.616,-0.232 -8.708,-2.443 -11.448,-5.804c-0.478,0.821 -0.751,1.774 -0.751,2.793c0,1.927 0.98,3.626 2.47,4.622c-0.91,-0.029 -1.767,-0.278 -2.516,-0.694c0,0.024 0,0.046 0,0.069c0,2.692 1.915,4.937 4.455,5.447c-0.466,0.127 -0.956,0.195 -1.463,0.195c-0.358,0 -0.706,-0.036 -1.045,-0.1c0.707,2.206 2.758,3.812 5.188,3.857c-1.9,1.489 -4.295,2.378 -6.898,2.378c-0.447,0 -0.89,-0.027 -1.324,-0.079c2.458,1.576 5.377,2.496 8.513,2.496c10.216,0 15.803,-8.463 15.803,-15.802c0,-0.241 -0.006,-0.48 -0.017,-0.719c1.086,-0.783 2.028,-1.76 2.772,-2.875" style="fill:#ffffff;fill-rule:nonzero;"/></svg>