<svg id="Capa_1" data-name="Capa 1" xmlns="http://www.w3.org/2000/svg" viewBox="0 0 300 100"><defs><style>.cls-1{fill:#fff;}.cls-2{fill:#e52625;}.cls-3{fill:#8a9796;}</style></defs><title>id-sinergia</title><path class="cls-1" d="M100.32,62.95A8.7,8.7,0,0,1,93.69,60l2.42-2.17a5.53,5.53,0,0,0,4.21,1.91,5.72,5.72,0,0,0,4.17-9.56l-5.27-5.82a11.38,11.38,0,0,1-3.06-7.74A10.31,10.31,0,0,1,106.7,26.3v3.19a7.13,7.13,0,0,0-7.35,7.14c0,7.48,9.86,9.61,9.86,17.43A8.91,8.91,0,0,1,100.32,62.95Zm9,0H108a11.31,11.31,0,0,0,4.08-8.93c0-9.23-9.82-11.82-9.82-17.43a4.13,4.13,0,0,1,4.38-4.21h1.4v.17c-2.42.59-3.44,2.25-3.44,4.68a4.73,4.73,0,0,0,1.28,3l4.89,5.78a12,12,0,0,1,2.59,8A11.31,11.31,0,0,1,109.29,63Zm0-30.44V26.3h1.32v6.12A7,7,0,0,0,109.29,32.55Z"/><path class="cls-1" d="M116.43,62.95V26.26h3.19V62.95Zm7.44,0h-1.32V26.26h2.59Z"/><path class="cls-1" d="M131.35,33.78V62.95h-3.15V25l25.51,31.37V27.19h3.15v38Zm2.13-6.59h1.23l16.2,19.64v1.53Zm2,35.75H134.2V41.73l2.93,3.61Zm24.23,0V27.19h1.28V63Z"/><path class="cls-1" d="M164,62.95V26.3h14.71v3.19H167.28V48.92H178.8V52.1H167.28v7.65H180v3.19Zm10.76-29.76L170.12,46V32.34h11.27v-6h1.28v6.89ZM171.44,55v1.79h-1.32V54.19h11.27V46h1.28V55Zm11.14,8V56.82h1.32V63Z"/><path class="cls-1" d="M198.82,54.44l4.55,7.44-2.72,1.66-4.72-7.69a17.2,17.2,0,0,1-4.93,1,5.31,5.31,0,0,1-.85-.08v6.21H187V26.3h3.78a15.24,15.24,0,0,1,8.08,28.14Zm-8.08-25h-.6V53.55h.6a12,12,0,1,0,0-24.06Zm3.66,30v3.44h-1.32V59.5l1.53-.25.13.21A.83.83,0,0,0,194.4,59.5Zm0-9.61c-.43.17-.89.3-1.28.47V32.76A13.57,13.57,0,0,1,195.93,34Zm9.52,5.27,4.46,7.14L204,64.94h-1.28l4.29-2.64-4.46-7.14a18,18,0,0,0-2.08-28.87h1.32a18,18,0,0,1,8.33,15.26A17.83,17.83,0,0,1,203.92,55.17Z"/><path class="cls-1" d="M232,63.46a18.83,18.83,0,1,1,10.37-34.56l-1.79,2.72A15.31,15.31,0,0,0,232,29.06a15.58,15.58,0,1,0,0,31.16,16.16,16.16,0,0,0,7.91-2.08V52.91h-8.16V49.68h11.35v10.2A20.71,20.71,0,0,1,232,63.46ZM221.6,45.3c0,6.59,4.46,11.69,11.14,12H232a12.71,12.71,0,0,1,0-25.42,9.15,9.15,0,0,1,1.62.64A12.77,12.77,0,0,0,221.6,45.3ZM242.9,34l-.89-.55,2.81-4.29.94.59Zm1.91,29H243.5c.85-.47,1.7-1,2.51-1.57V46.79h1.32V61.42C246.52,62,245.67,62.48,244.81,63Z"/><path class="cls-1" d="M250.38,62.95V26.26h3.19V62.95Zm7.44,0H256.5V26.26h2.59Z"/><path class="cls-1" d="M287,62.95l-1.36-3.74H267l-1.36,3.74h-3.44l14.16-38.47,14.11,38.47ZM276.31,33.87,268.15,56h16.28ZM269.94,63h-1.28l.34-.85h1.28Zm3.61-9.91h-1.28l4-10.88,1.53,4.17Zm20,9.91L279.76,26.34h1.32L294.81,63Z"/><path class="cls-1" d="M99.06,68.75l-.36.79a3.79,3.79,0,0,0-2-.62c-.94,0-1.56.36-1.56,1,0,1.89,4.13.9,4.12,3.57,0,1.23-1.08,2-2.66,2a4.19,4.19,0,0,1-2.81-1.12l.38-.76a3.65,3.65,0,0,0,2.45,1c1.06,0,1.72-.43,1.72-1.13,0-1.93-4.12-.9-4.12-3.54,0-1.15,1-1.9,2.54-1.9A4.35,4.35,0,0,1,99.06,68.75Z"/><path class="cls-1" d="M105.6,73h-4.51a1.94,1.94,0,0,0,2,1.76,2.31,2.31,0,0,0,1.71-.69l.45.48a2.91,2.91,0,0,1-2.22.92,2.79,2.79,0,0,1,0-5.58C104.81,69.88,105.69,71.12,105.6,73Zm-.73-.67A1.72,1.72,0,0,0,103,70.6a1.87,1.87,0,0,0-1.93,1.73Z"/><path class="cls-1" d="M107.83,71.14a2.07,2.07,0,0,1,2-1.26v.83a1.83,1.83,0,0,0-2,1.79v2.94H107V69.91h.82Z"/><path class="cls-1" d="M112.45,75.44l-2.19-5.53h.87l1.76,4.68,1.75-4.68h.83l-2.17,5.53Z"/><path class="cls-1" d="M117.37,68.33a.54.54,0,1,1-.54-.57A.54.54,0,0,1,117.37,68.33Zm-.93,7.11V69.91h.81v5.53Z"/><path class="cls-1" d="M123.55,70.71l-.45.58a2.33,2.33,0,0,0-1.65-.64,2,2,0,0,0,0,4.08,2.16,2.16,0,0,0,1.71-.71l.47.5a2.78,2.78,0,0,1-2.21,1,2.79,2.79,0,0,1,0-5.58A2.82,2.82,0,0,1,123.55,70.71Z"/><path class="cls-1" d="M126.06,68.33a.54.54,0,1,1-.54-.57A.54.54,0,0,1,126.06,68.33Zm-.93,7.11V69.91h.81v5.53Z"/><path class="cls-1" d="M133,72.67a2.8,2.8,0,1,1-2.8-2.78A2.68,2.68,0,0,1,133,72.67Zm-4.79,0a2,2,0,1,0,2-2A1.94,1.94,0,0,0,128.19,72.68Z"/><path class="cls-1" d="M137.65,70.39l-.31.65a2.92,2.92,0,0,0-1.5-.45c-.62,0-1.09.22-1.09.74,0,1.23,3.09.6,3.09,2.58,0,1.09-1,1.57-2,1.57a3.12,3.12,0,0,1-2.12-.78l.31-.62a2.8,2.8,0,0,0,1.84.7c.65,0,1.18-.24,1.19-.79,0-1.33-3.06-.65-3.05-2.61,0-1.06.91-1.5,1.92-1.5A3.2,3.2,0,0,1,137.65,70.39Z"/><path class="cls-1" d="M148,71.86v2.67a4.54,4.54,0,0,1-2.73,1,3.71,3.71,0,1,1,0-7.41,4.16,4.16,0,0,1,2.71,1l-.48.63a3.38,3.38,0,0,0-2.22-.85,2.91,2.91,0,1,0,0,5.82,3.51,3.51,0,0,0,1.93-.62V71.86Z"/><path class="cls-1" d="M153.38,74.59a2.38,2.38,0,0,1-2,.89,1.72,1.72,0,0,1-1.88-1.69c0-1,.77-1.57,2.07-1.58h1.82v-.33c0-.81-.5-1.29-1.48-1.29a3.06,3.06,0,0,0-1.75.63l-.35-.6a3.71,3.71,0,0,1,2.26-.75,1.86,1.86,0,0,1,2.13,1.91v3.65h-.8Zm0-1.06v-.66h-1.72c-.92,0-1.41.28-1.41.89s.49,1,1.27,1A1.79,1.79,0,0,0,153.37,73.53Z"/><path class="cls-1" d="M159.24,70.39l-.31.65a2.92,2.92,0,0,0-1.5-.45c-.62,0-1.09.22-1.09.74,0,1.23,3.09.6,3.09,2.58,0,1.09-1,1.57-2,1.57a3.12,3.12,0,0,1-2.12-.78l.31-.62a2.8,2.8,0,0,0,1.84.7c.65,0,1.18-.24,1.19-.79,0-1.33-3.06-.65-3.05-2.61,0-1.06.91-1.5,1.92-1.5A3.2,3.2,0,0,1,159.24,70.39Z"/><path class="cls-1" d="M163.61,75.07a2.32,2.32,0,0,1-1.25.42c-.81,0-1.41-.48-1.41-1.57V70.75h-.8v-.66h.8V68.63h.81v1.46h1.75v.67h-1.75v3c0,.67.26.92.73.92a1.67,1.67,0,0,0,.88-.28Z"/><path class="cls-1" d="M165.67,71.14a2.07,2.07,0,0,1,2-1.26v.83a1.83,1.83,0,0,0-2,1.79v2.94h-.82V69.91h.82Z"/><path class="cls-1" d="M173.81,72.67a2.8,2.8,0,1,1-2.8-2.78A2.68,2.68,0,0,1,173.81,72.67Zm-4.79,0a2,2,0,1,0,2-2A1.94,1.94,0,0,0,169,72.68Z"/><path class="cls-1" d="M180.3,72v3.41h-.82V72.25a1.43,1.43,0,0,0-1.56-1.55,1.8,1.8,0,0,0-1.86,1.77v3h-.82V69.91h.82v1.22a2.18,2.18,0,0,1,2.14-1.25A2,2,0,0,1,180.3,72Z"/><path class="cls-1" d="M187.18,72.67a2.8,2.8,0,1,1-2.8-2.78A2.68,2.68,0,0,1,187.18,72.67Zm-4.79,0a2,2,0,1,0,2-2A1.94,1.94,0,0,0,182.39,72.68ZM184.61,69h-.79l1.26-1.43.83.4Z"/><path class="cls-1" d="M197.76,72v3.41h-.82V72.25a1.42,1.42,0,0,0-1.53-1.56,1.83,1.83,0,0,0-1.81,2v2.72h-.83V72.25a1.42,1.42,0,0,0-1.53-1.56,1.84,1.84,0,0,0-1.82,2v2.72h-.81V69.91h.81v1.25a2.12,2.12,0,0,1,2.11-1.28,1.88,1.88,0,0,1,2,1.45,2.13,2.13,0,0,1,2.18-1.45A1.94,1.94,0,0,1,197.76,72Z"/><path class="cls-1" d="M200.51,68.33a.54.54,0,1,1-.54-.57A.54.54,0,0,1,200.51,68.33Zm-.93,7.11V69.91h.81v5.53Z"/><path class="cls-1" d="M206.69,70.71l-.45.58a2.33,2.33,0,0,0-1.65-.64,2,2,0,0,0,0,4.08A2.16,2.16,0,0,0,206.3,74l.47.5a2.77,2.77,0,0,1-2.21,1,2.79,2.79,0,0,1,0-5.58A2.83,2.83,0,0,1,206.69,70.71Z"/><path class="cls-1" d="M213,72.67a2.8,2.8,0,1,1-2.8-2.78A2.68,2.68,0,0,1,213,72.67Zm-4.78,0a2,2,0,1,0,2-2A1.94,1.94,0,0,0,208.27,72.68Z"/><path class="cls-1" d="M217.72,70.39l-.31.65a2.92,2.92,0,0,0-1.5-.45c-.62,0-1.09.22-1.09.74,0,1.23,3.09.6,3.09,2.58,0,1.09-1,1.57-2,1.57a3.12,3.12,0,0,1-2.12-.78l.31-.62a2.8,2.8,0,0,0,1.84.7c.65,0,1.17-.24,1.18-.79,0-1.33-3.06-.65-3.05-2.61,0-1.06.91-1.5,1.92-1.5A3.2,3.2,0,0,1,217.72,70.39Z"/><path class="cls-1" d="M226.75,68.75l-.36.79a3.79,3.79,0,0,0-2-.62c-.94,0-1.56.36-1.56,1,0,1.89,4.13.9,4.12,3.57,0,1.23-1.08,2-2.65,2a4.19,4.19,0,0,1-2.81-1.12l.38-.76a3.65,3.65,0,0,0,2.45,1c1.06,0,1.72-.43,1.72-1.13,0-1.93-4.12-.9-4.12-3.54,0-1.15,1-1.9,2.54-1.9A4.35,4.35,0,0,1,226.75,68.75Z"/><path class="cls-1" d="M229.09,75a.51.51,0,1,1-.5-.55A.51.51,0,0,1,229.09,75Z"/><path class="cls-1" d="M238.58,75.44h-.82V74.26a2.31,2.31,0,0,1-2.15,1.23,2.81,2.81,0,0,1,0-5.61,2.31,2.31,0,0,1,2.16,1.24V67.66h.82Zm-.82-2.75a2,2,0,1,0-2,2.06A2,2,0,0,0,237.76,72.7Z"/><path class="cls-1" d="M245.39,73h-4.51a1.94,1.94,0,0,0,2,1.76,2.31,2.31,0,0,0,1.71-.69l.45.48a2.9,2.9,0,0,1-2.22.92,2.79,2.79,0,0,1,0-5.58C244.59,69.88,245.47,71.12,245.39,73Zm-.74-.67a1.72,1.72,0,0,0-1.85-1.73,1.87,1.87,0,0,0-1.93,1.73Z"/><path class="cls-1" d="M253.07,73.1l-.49,0h-2v2.32h-.84V68.1h2.79c1.84,0,2.9.9,2.9,2.47a2.3,2.3,0,0,1-1.65,2.38l1.72,2.5h-1Zm-.49-.79c1.33,0,2.09-.59,2.09-1.73s-.76-1.68-2.09-1.68h-2v3.41Z"/><path class="cls-1" d="M261.43,74.65v.8h-4.06V68.1h.84v6.55Z"/><path class="cls-1" d="M270.64,75.44h-.82V74.26a2.31,2.31,0,0,1-2.15,1.23,2.81,2.81,0,0,1,0-5.61,2.31,2.31,0,0,1,2.16,1.24V67.66h.82Zm-.82-2.75a2,2,0,1,0-2,2.06A2,2,0,0,0,269.82,72.7Z"/><path class="cls-1" d="M277.45,73h-4.51a1.94,1.94,0,0,0,2,1.76,2.3,2.3,0,0,0,1.71-.69l.45.48a2.91,2.91,0,0,1-2.23.92,2.79,2.79,0,0,1,0-5.58C276.65,69.88,277.53,71.12,277.45,73Zm-.73-.67a1.72,1.72,0,0,0-1.85-1.73,1.87,1.87,0,0,0-1.93,1.73Z"/><path class="cls-1" d="M287.67,69.15l-.5.64a3.09,3.09,0,0,0-2.17-.92,2.9,2.9,0,1,0,0,5.79,3.21,3.21,0,0,0,2.17-.88l.51.58A4.05,4.05,0,0,1,285,75.49a3.71,3.71,0,1,1,0-7.41A4,4,0,0,1,287.67,69.15Z"/><path class="cls-1" d="M291.13,75.44l-3-7.35h.9l2.53,6.37,2.54-6.37H295l-3,7.35Z"/><circle class="cls-2" cx="44.73" cy="50" r="39.69" transform="translate(-19 29.03) rotate(-29.97)"/><path class="cls-1" d="M19.71,30.62c-1.5,5.6,4.56,12.13,13.54,14.51,5.38,1.46,10.59,1.09,14.21-.6a19.59,19.59,0,0,1,13.85-1.19l23.12,6.86a33.33,33.33,0,0,0-.23-4.43L62.09,40.43a19.37,19.37,0,0,1-11.37-7.94c-2.31-3.3-6.62-6.21-12-7.66C29.71,22.41,21.22,25,19.71,30.62Z"/><path class="cls-1" d="M5,49.77a40,40,0,0,0,.23,4.5L29,60a14,14,0,0,1,9.05,7,8.53,8.53,0,0,0,5.3,4.17l23.34,6.27a1.31,1.31,0,1,0,.64-2.54L49.23,70a1.12,1.12,0,0,1-.78-1.35,1.1,1.1,0,0,1,1.35-.78L68,72.74a1.3,1.3,0,0,0,1.61-1,1.32,1.32,0,0,0-1-1.56L50.5,65.34a1.06,1.06,0,0,1-.66-.52,1.08,1.08,0,0,1,1.21-1.6l18.2,4.87a1.3,1.3,0,0,0,1.61-1,1.32,1.32,0,0,0-1-1.56L51.75,60.69a1.1,1.1,0,1,1,.57-2.13l18.11,4.88a1.38,1.38,0,0,0,1.66-.89,1.29,1.29,0,0,0-.91-1.64L47.83,54.65a8.61,8.61,0,0,0-6.71,1,14,14,0,0,1-11.33,1.5Z"/><path class="cls-3" d="M15.54,33c-1.5,5.6,4.59,12.11,13.54,14.52,5.4,1.45,10.6,1.09,14.24-.62a19.53,19.53,0,0,1,13.82-1.17l27.11,8a28.87,28.87,0,0,0,.18-3.57L66.55,44.92l-8.61-2.1-.45-.14a19.91,19.91,0,0,0-10,1.85c-3.62,1.69-8.84,2.06-14.21.6-9-2.39-15-8.92-13.54-14.51a7.2,7.2,0,0,1,2.09-3.31C18.6,28.39,16.26,30.34,15.54,33Z"/><path class="cls-3" d="M65.44,74.2c0,.05,0,.09-.07.14L49.24,70a1.1,1.1,0,0,1-.78-1.35c0-.12.14-.18.21-.27l15.78,4.24A1.35,1.35,0,0,1,65.44,74.2Z"/><path class="cls-3" d="M66.69,69.54a1.42,1.42,0,0,1-.06.14L50.49,65.35A1.09,1.09,0,0,1,49.71,64h0c0-.12.14-.17.21-.27L65.7,68A1.35,1.35,0,0,1,66.69,69.54Z"/><path class="cls-3" d="M67.92,65s0,0,0,.06L51.74,60.69A1.1,1.1,0,0,1,51,59.34c0-.12.14-.18.21-.27L67,63.32A1.31,1.31,0,0,1,67.92,65Z"/><path class="cls-3" d="M5.25,54.25A33.81,33.81,0,0,0,5.8,57.8l19.05,4.61a14.06,14.06,0,0,1,9.08,7,8.5,8.5,0,0,0,5.28,4.19l3.38.88,20,5.37a1.28,1.28,0,0,0,1.61-1,1.34,1.34,0,0,0-1-1.57L45.08,72.4a1,1,0,0,1-.74-1l-.95-.25A8.53,8.53,0,0,1,38.08,67,14,14,0,0,0,29.15,60a13.48,13.48,0,0,1-3.52-.5l-6.24-1.87Z"/><path class="cls-3" d="M38.58,10.79A39.69,39.69,0,0,0,5.52,56.15c-3.4-21.66,10.3-49,32-52.41s43.08,18.44,46.47,40.1A39.69,39.69,0,0,0,38.58,10.79Z"/><path class="cls-3" d="M50.89,89.21A39.69,39.69,0,0,0,83.95,43.84c3.4,21.66-10.3,49-32,52.41S8.92,77.81,5.52,56.15A39.69,39.69,0,0,0,50.89,89.21Z"/></svg>